<?xml version="1.0" encoding="UTF-8" standalone="no"?>
<!-- Created with Inkscape (http://www.inkscape.org/) -->

<svg
   width="150"
   height="60"
   viewBox="0 0 150 60"
   version="1.1"
   id="svg5"
   xml:space="preserve"
   inkscape:version="1.2 (dc2aedaf03, 2022-05-15)"
   sodipodi:docname="icons.svg"
   inkscape:export-filename="export.svg"
   inkscape:export-xdpi="96"
   inkscape:export-ydpi="96"
   xmlns:inkscape="http://www.inkscape.org/namespaces/inkscape"
   xmlns:sodipodi="http://sodipodi.sourceforge.net/DTD/sodipodi-0.dtd"
   xmlns="http://www.w3.org/2000/svg"
   xmlns:svg="http://www.w3.org/2000/svg"><sodipodi:namedview
     id="namedview7"
     pagecolor="#ffffff"
     bordercolor="#666666"
     borderopacity="1.0"
     inkscape:showpageshadow="false"
     inkscape:pageopacity="0.0"
     inkscape:pagecheckerboard="0"
     inkscape:deskcolor="#d1d1d1"
     inkscape:document-units="px"
     showgrid="false"
     inkscape:zoom="4"
     inkscape:cx="73.125"
     inkscape:cy="2.75"
     inkscape:window-width="1920"
     inkscape:window-height="1027"
     inkscape:window-x="1912"
     inkscape:window-y="-8"
     inkscape:window-maximized="1"
     inkscape:current-layer="svg5"
     showborder="false"
     borderlayer="false"
     shape-rendering="crispEdges" /><defs
     id="defs2" /><path
     id="path248"
     style="display:inline;fill:#436665;fill-opacity:1;stroke-width:0.295813"
     d="m 127.67818,0.00348797 c -1.07532,0.01776 -2.13095,0.103558 -3.1328,0.263658 -4.23792,0.677236 -5.00105,1.01756303 -12.31635,5.49802803 -4.44236,2.72086 -7.26432,4.307141 -8.0449,4.52342 -0.98864,0.273939 -2.26536,0.03024 -7.185516,-1.376949 -5.26787,-1.506604 -6.28956,-1.690723 -8.548794,-1.539055 -2.51968,0.169133 -2.615975,0.202657 -5.3574,1.845695 -2.735611,1.63953 -2.820166,1.717664 -4.201155,3.867175 -1.073949,1.671603 -1.633736,3.041166 -2.347649,5.755836 -0.515299,1.959447 -0.989979,4.033239 -1.054684,4.609358 -0.02419,0.216453 -0.04588,0.368994 -0.07226,0.505858 H 92.80137 c 0.34662,-0.744066 2.075577,-2.210653 3.501939,-2.914054 2.067658,-1.01966 4.352701,-1.175164 6.593721,-0.449214 2.14132,0.693658 3.00464,1.273873 4.37694,2.943345 3.1913,3.882425 2.819,9.582423 -0.86719,13.283152 -1.15702,1.161622 -3.45474,2.186237 -5.31833,2.369135 -0.88377,0.0867 -2.229968,0.02721 -2.992182,-0.130847 -1.680447,-0.348055 -4.505429,-2.221734 -5.181622,-3.437486 l -0.34764,-0.626949 h -17.29876 c 0.149064,0.593686 0.326626,1.53977 0.57031,3.013659 0.886674,5.362362 3.191285,9.620921 6.378881,11.783158 2.072723,1.405979 5.507098,2.199612 8.330047,1.923821 1.269954,-0.124081 4.190225,-0.773103 6.49021,-1.4414 4.797396,-1.393957 5.299176,-1.450048 7.281216,-0.82031 1.96856,0.625442 2.58967,0.995233 6.46873,3.873034 7.30076,5.416235 12.59728,7.145049 20.11906,6.566379 4.76841,-0.36684 8.83273,-2.070455 11.67379,-4.896466 4.5913,-4.567031 7.07854,-12.341754 7.38083,-23.076082 0.42103,-14.953546 -2.58354,-23.958338 -9.59176,-28.753796 -2.9708,-2.032796 -8.0316,-3.23925803 -12.69136,-3.16210003 z m -1.9492,15.21869303 c 1.28393,-0.02381 2.86235,0.154167 3.03514,0.464843 0.12774,0.229794 0.20715,3.265151 0.17578,6.744114 -0.10847,11.948897 -0.23576,21.050033 -0.30077,21.523357 -0.0941,0.687622 -0.43847,0.806971 -2.32421,0.812493 -2.70404,0.0079 -2.79747,-0.07722 -2.8203,-2.59374 -0.0797,-8.796727 0.32296,-26.410339 0.60937,-26.673726 0.18988,-0.1745 0.85463,-0.263016 1.625,-0.277341 z m -115.419486,5.28709 c -0.515752,-0.0102 -0.6556526,0.194493 -0.8359346,1.23437 L 9.2567628,22.993635 6.6532572,22.808099 c -4.150502,-0.296352 -4.2949622,-0.275791 -5.0527153,0.755857 -0.87620223,1.192947 -1.67011543,3.845258 -1.59569683,5.333963 0.075212,1.505728 0.9630989,4.158168 1.67772783,5.013653 0.4459062,0.533799 1.1048915,0.622455 3.9745943,0.529298 2.7523874,-0.08935 3.4508142,-0.0042 3.4941275,0.425777 0.030236,0.295672 0.2408835,0.894433 0.4687481,1.332025 0.3503609,0.672659 0.5245352,0.746031 1.1328072,0.472655 0.781149,-0.351079 0.971372,-1.534633 0.332031,-2.072258 -0.452028,-0.380049 -0.42525,-0.39017 1.361323,-0.416011 l 1.533197,-0.02154 0.04492,0.994137 c 0.03402,0.745357 0.183888,1.08218 0.60156,1.351557 1.050023,0.677021 2.02309,-0.57695 1.365229,-1.759756 -0.407884,-0.733407 -0.40243,-0.737319 1.11523,-0.722654 0.988795,0.0098 1.251465,0.137725 1.35937,0.66406 0.0737,0.358751 0.279306,0.957188 0.458983,1.328117 0.266456,0.550373 0.465375,0.610864 1.080074,0.333996 0.629628,-0.283615 0.728677,-0.500045 0.599607,-1.316401 h -0.002 c -0.182173,-1.152687 -0.112664,-1.211859 1.339839,-1.175776 0.637867,0.01587 1.558966,-0.238488 2.156241,-0.595701 l 1.041012,-0.623045 0.03906,-3.662095 c 0.03779,-3.586244 0.01859,-3.676907 -0.806637,-4.400374 -0.582952,-0.509951 -1.359615,-0.764259 -2.509757,-0.820309 -1.623411,-0.07914 -1.657074,-0.09653 -1.257807,-0.722654 0.480148,-0.753019 0.281865,-1.589747 -0.445311,-1.869132 -0.776197,-0.298204 -1.394486,0.229001 -1.449213,1.23437 -0.06123,1.122372 -0.378618,1.313146 -1.777337,1.080071 l -1.10737,-0.183611 0.33203,-0.759762 c 0.364345,-0.834471 0.08919,-1.596995 -0.650388,-1.802726 -0.749363,-0.20844 -1.107364,0.166753 -1.357417,1.419914 L 13.916898,23.31585 12.565341,23.2299 c -1.557384,-0.09876 -1.651306,-0.182244 -1.201168,-1.060539 0.395601,-0.771844 -0.157541,-1.642168 -1.054683,-1.660147 z M 100.4986,22.15184 c -1.343456,-0.01776 -2.739654,0.380653 -4.113265,1.20117 -1.042136,0.622448 -1.444345,0.994039 -2.17181,1.064398 l -1.300587,0.216415 -1.93383,-0.04645 c 0.01776,0.01474 0.03061,0.02154 0.04883,0.03704 0.191244,0.160705 0.317857,2.495533 0.279306,5.189434 -0.03704,2.611806 -0.08579,3.861109 -0.236333,4.443343 l 1.568801,0.07431 0.542927,0.160705 0.767154,0.257158 c 0.598248,0.200541 0.9982,0.353007 1.708975,0.90234 1.507724,1.165338 4.113161,1.851153 5.790992,1.525385 5.87657,-1.141031 8.0944,-8.662198 3.80663,-12.91401 -1.39056,-1.378895 -3.03049,-2.088646 -4.7578,-2.111323 z m -0.49218,0.609374 c 1.73111,-0.07325 3.43611,0.6221 4.87693,2.050772 1.38459,1.372912 1.87256,2.60701 1.93163,4.888656 0.0427,1.653496 -0.63507,3.577431 -1.67773,4.769512 -0.80831,0.924121 -3.29785,2.156322 -4.47263,2.212882 -2.583179,0.124384 -4.997056,-1.262981 -6.277321,-3.60936 -1.891306,-3.466361 -0.849377,-7.321109 2.52538,-9.343716 1.006466,-0.603199 2.055065,-0.924801 3.093741,-0.968746 z M 8.2411421,24.210427 c 0.1052784,-0.0098 0.213758,-0.0087 0.326172,0.0038 0.5589137,0.06278 0.661856,0.197101 0.7324195,0.957025 0.08126,0.873238 0.071501,0.883016 -0.8925748,0.873045 -0.6486393,-0.0068 -1.0492299,-0.199898 -1.1953081,-0.578122 -0.231824,-0.600375 0.292334,-1.186733 1.029293,-1.255856 z m 2.6171769,0.191394 c 0.742049,-0.01096 2.309664,0.06644 3.105457,0.171855 0.06576,0.0087 0.09752,0.422005 0.07031,0.917964 l -0.04883,0.90039 -1.687493,-0.05666 c -0.927901,-0.03137 -1.714812,-0.106237 -1.748034,-0.165991 -0.06236,-0.112176 -0.141939,-1.485519 -0.09961,-1.724603 0.0047,-0.02532 0.160853,-0.03935 0.408201,-0.04297 z m 5.105449,0.216907 c 0.227599,0.0053 0.524685,0.02835 0.91406,0.06055 1.831964,0.150613 1.778326,0.116447 1.746087,1.082025 -0.03024,0.905719 -0.140942,0.958632 -1.798822,0.853513 -1.489881,-0.09449 -1.763001,-0.324623 -1.652337,-1.386715 0.05102,-0.489092 0.108218,-0.625532 0.791012,-0.609371 z m 4.376937,0.300509 c 0.525049,-0.0864 1.095119,0.560437 0.958981,1.087884 -0.12737,0.493105 -1.238793,0.986982 -1.433589,0.636715 -0.353384,-0.635196 -0.07845,-1.6336 0.474608,-1.724599 z m -1.87304,5.820159 0.04492,1.011715 0.04492,1.009762 -1.220699,0.04687 c -0.671693,0.02608 -1.435389,0.0325 -1.695306,0.01361 h -0.0019 c -0.383393,-0.02759 -0.478569,-0.185045 -0.505857,-0.839842 -0.0189,-0.443919 -0.02305,-0.864121 -0.01172,-0.931635 0.01134,-0.06754 0.769665,-0.164938 1.683587,-0.216793 z m 1.925774,0.01361 c 0.369081,0.04751 0.739529,0.431964 0.816403,0.935543 0.08164,0.534499 -0.757266,1.16268 -1.212886,0.908198 -0.428785,-0.23947 -0.400721,-1.507863 0.03906,-1.771477 0.111741,-0.06697 0.234394,-0.0881 0.357421,-0.07226 z m -8.007782,0.328137 c 1.417201,-0.02041 1.528107,0.03402 1.59765,0.783199 0.09411,1.015922 -0.11402,1.126839 -2.072258,1.109374 -1.53376,-0.01361 -1.592722,-0.04377 -1.527337,-0.818359 0.08542,-1.011042 0.152405,-1.047451 2.001945,-1.074214 z m -3.8691252,0.17382 c 0.3034118,0.01398 0.5575255,0.09865 0.6503881,0.265625 0.2165662,0.389588 0.049901,1.265506 -0.2792947,1.462883 -0.1198105,0.07177 -0.5053322,0.140636 -0.8554656,0.152352 -0.7647074,0.02532 -1.338106,-0.865599 -0.9101525,-1.414055 0.2482195,-0.318084 0.8888387,-0.490207 1.3945259,-0.466797 z"
     sodipodi:nodetypes="sssscsssssccssccccccccsssscsscssscccsccsccccscssccscccccccccscccccccccsccccscccscsccccccccccccssssccccsssscccssccccccsccccccccccccccccscsscccccssccsscccccsscccss" /><path
     d="m 126.67774,-45.082891 h -1.37023 v -4.175205 -4.175205 h 1.37023 1.37023 v 4.175205 4.175205 z m -3.71924,0 h -1.56597 v -4.175205 -4.175205 h 1.56597 1.56601 v 4.175205 4.175205 z m -4.51688,-0.397644 h -2.16793 l 0.11263,-3.67816 0.11263,-3.678159 2.05534,-0.120189 2.05538,-0.120189 v 3.798348 3.798311 z m -5.07477,0 h -2.15323 v -3.777561 -3.777561 h 2.15323 2.15324 v 3.777561 3.777561 z m -5.38307,-0.08013 -2.44686,-0.118299 -0.11263,-3.678122 -0.11263,-3.67816 h 2.55942 2.55942 v 3.796535 3.796534 z m -5.67674,8.32e-4 -2.25108,-0.119433 v -3.578721 -3.578758 l 2.25108,-0.119433 2.25113,-0.119055 v 3.817246 3.817284 z m -5.970289,-0.318232 h -2.740498 v -3.379918 -3.379917 h 2.740498 2.740461 v 3.379917 3.379918 z"
     style="display:inline;fill:#815556;fill-opacity:1;stroke-width:0.394553"
     id="path428"
     inkscape:export-filename="ukuleleicon.svg"
     inkscape:export-xdpi="96"
     inkscape:export-ydpi="96" /><path
     style="display:inline;fill:#436665;fill-opacity:1;stroke-width:0.394553"
     d="m 177.51381,-44.12086 c -1.39022,8.97528 -5.88318,13.861905 -13.55592,14.743555 -4.63159,0.532233 -8.40665,-0.541833 -15.49992,-4.409952 -2.2701,-1.237945 -5.31526,-1.36267 -8.72058,-0.357543 -3.08625,0.911281 -7.63518,0.907048 -10.33788,-0.0076 -2.84598,-0.965291 -5.49453,-3.649058 -6.62222,-6.710399 -1.29597,-3.518134 -1.35617,-3.440918 2.68441,-3.440918 h 3.52346 v -4.970532 -4.970455 h -3.52346 c -4.04058,0 -3.98038,0.0771 -2.68441,-3.440919 1.11787,-3.034619 3.78024,-5.747753 6.56058,-6.685756 2.63282,-0.888188 6.90414,-0.894614 10.21769,-0.01512 3.78395,1.004032 6.56904,0.892611 8.86488,-0.354897 7.52322,-4.087366 10.98278,-5.01335 15.9882,-4.279404 6.8208,1.000214 10.67622,4.657435 12.55313,11.907739 0.73829,2.851955 1.03635,9.867437 0.55204,12.99405 z m -13.88119,-7.739677 c -0.32315,-0.272126 -0.58726,-0.970129 -0.58726,-1.550777 0,-1.374577 -1.01582,-2.823269 -1.97968,-2.823269 -0.72438,0 -0.76078,0.332976 -0.76078,6.958675 0,6.625889 0.0378,6.958638 0.76078,6.958638 0.96386,0 1.97968,-1.448655 1.97968,-2.823231 0,-0.580686 0.26419,-1.278538 0.58726,-1.550739 0.80251,-0.67646 0.80251,-4.492875 0,-5.169297 z m -17.71585,0.0076 c -0.37645,-0.761083 -1.30111,-1.805895 -2.05474,-2.321839 -1.13413,-0.77639 -1.73526,-0.90822 -3.48862,-0.765203 -1.87843,0.153071 -2.28858,0.3583 -3.62132,1.809449 -1.37076,1.492535 -1.503,1.831634 -1.503,3.854323 0,2.022652 0.13228,2.361789 1.503,3.854362 1.33274,1.451187 1.74289,1.656075 3.62132,1.809372 1.75336,0.143244 2.35449,0.01134 3.48862,-0.765203 2.53927,-1.738279 3.37988,-4.796446 2.05474,-7.475261 z m -54.008854,6.643425 c -0.75651,0.503433 -1.904088,0.718073 -4.012838,0.750539 -1.624328,0.02646 -3.583711,0.222992 -4.354205,0.439786 -2.241979,0.630988 -3.901002,-0.124388 -4.960933,-2.259518 -1.068926,-2.15297 -1.100523,-3.660509 -0.122457,-5.848251 0.985512,-2.204598 1.940712,-2.677757 4.680908,-2.318739 1.207219,0.157984 3.435439,0.312567 4.95156,0.342803 1.905562,0.03855 3.083981,0.272882 3.817096,0.760176 1.014652,0.67457 1.060498,0.850431 1.060498,4.066657 0,3.215281 -0.04611,3.392277 -1.059515,4.066582 z m -3.83418,4.880276 c -1.104831,0 -1.37023,-0.152315 -1.37023,-0.787729 0,-0.503697 0.344693,-0.875602 0.956485,-1.031508 1.19006,-0.303118 1.783976,0.04535 1.783976,1.04742 0,0.61697 -0.274772,0.771817 -1.370231,0.771817 z m 0.956486,-16.090389 c -0.775862,0.487029 -2.326716,-0.190111 -2.326716,-1.015635 0,-0.635149 0.265323,-0.787691 1.37023,-0.787691 1.095345,0 1.370231,0.154583 1.370231,0.771779 0,0.424517 -0.186331,0.88868 -0.413745,1.031547 z m -0.509594,13.429111 c -0.33978,0.132284 -0.72892,0.05745 -0.865059,-0.166299 -0.376819,-0.619086 0.08315,-0.870122 0.823144,-0.449499 0.589002,0.334866 0.593499,0.400554 0.04195,0.615534 z m 0.02646,-11.864917 c -0.386117,0.170079 -0.811881,0.198048 -0.94613,0.06161 -0.397569,-0.403805 0.161008,-0.729298 0.932372,-0.543458 0.683906,0.164787 0.684548,0.18633 0.01512,0.481927 z m -5.561954,15.71909 c -1.200605,0 -1.37023,-0.123213 -1.37023,-0.994091 0,-0.87103 0.169701,-0.994092 1.37023,-0.994092 1.200605,0 1.37023,0.123213 1.37023,0.994092 0,0.871029 -0.169701,0.994091 -1.37023,0.994091 z m 0,-18.291322 c -1.200605,0 -1.37023,-0.123213 -1.37023,-0.994129 0,-0.870992 0.169701,-0.994091 1.37023,-0.994091 1.200605,0 1.37023,0.123213 1.37023,0.994091 0,0.870992 -0.169701,0.994129 -1.37023,0.994129 z m 0,15.507889 c -0.32315,0 -0.587225,-0.268346 -0.587225,-0.596485 0,-0.328063 0.264189,-0.596447 0.587225,-0.596447 0.32315,0 0.587263,0.268347 0.587263,0.596447 0,0.328063 -0.264189,0.596485 -0.587263,0.596485 z m 0,-13.519745 c -0.32315,0 -0.587225,-0.268346 -0.587225,-0.596447 0,-0.328063 0.264189,-0.596447 0.587225,-0.596447 0.32315,0 0.587263,0.268347 0.587263,0.596447 0,0.328063 -0.264189,0.596447 -0.587263,0.596447 z"
     id="path316"
     sodipodi:nodetypes="ccsccsscccscccccscccssssscccccssccccccccccccsccsscsscssscccccccccccssssssssssssssssssss"
     inkscape:export-filename="ukuleleicon.svg"
     inkscape:export-xdpi="96"
     inkscape:export-ydpi="96" /><path
     d="m 73.084201,24.62434 c -0.424254,0.157417 -0.3682,1.01331 -0.402344,5.580055 -0.02646,3.718164 0.01247,3.972945 0.623045,4.052719 0.358298,0.04683 0.750627,0.03061 0.873045,-0.03704 0.06958,-0.03825 0.134664,-0.01852 0.201184,0.07423 h 2.574211 c -0.311092,-0.443961 -0.253719,-8.575402 0.04494,-9.669885 z m 4.492171,0 c 0.3041,0.5037 0.400001,2.008683 0.353498,4.904278 -0.04951,3.084404 -0.158513,4.41017 -0.480467,4.765607 h 4.279278 c -0.18289,-1.410416 -0.27375,-8.623455 -0.0957,-9.669885 z m 4.814435,0 c 0.353309,0.264226 0.403826,1.204554 0.361321,4.904278 -0.03175,2.76282 -0.110777,4.177167 -0.337888,4.765607 h 3.462877 c -0.06799,-0.525001 -0.108586,-2.591605 -0.09373,-4.957013 0.01852,-2.779023 0.116409,-4.247746 0.320314,-4.712872 z m 4.42381,0 c 0.0053,0.0076 0.01512,0.01361 0.01965,0.02154 0.08277,0.148762 0.137725,2.439782 0.121095,5.089825 -0.01701,2.507658 -0.09823,3.956935 -0.263658,4.558577 h 2.757801 c -0.0087,-0.154053 -0.0076,-0.354518 -0.0038,-0.619141 0.08118,-6.16919 0.11297,-8.410679 0.337889,-9.050744 z M 69.06859,24.65949 c -1.180582,-0.01323 -2.355032,0.04486 -2.369129,0.187502 -0.0994,1.005139 -0.05347,8.709053 0.05273,8.900357 0.116787,0.209989 4.375676,0.571644 4.667946,0.396482 0.04346,-0.02646 0.09351,-2.046251 0.109379,-4.490217 0.01512,-2.443973 -0.0079,-4.581972 -0.05469,-4.751936 -0.03874,-0.143206 -1.225655,-0.22885 -2.406242,-0.242188 z m -4.695292,0.04687 c -1.494973,-0.0083 -4.03298,0.0703 -4.179672,0.158211 -0.23433,0.140371 -0.436171,8.371312 -0.214843,8.75387 0.11263,0.196006 1.335577,0.290569 3.892563,0.300774 l 1.552729,0.0061 0.05664,-4.578106 c 0.03024,-2.517118 -0.007,-4.58741 -0.08594,-4.601546 -0.13932,-0.02495 -0.523156,-0.03628 -1.02148,-0.03908 z m -10.857381,0.08787 c -0.703329,-0.03515 -0.734617,0.139918 -0.761716,4.205064 -0.01512,2.33309 0.02116,4.332906 0.08203,4.443339 0.06161,0.110438 1.401517,0.221404 2.976551,0.246084 l 2.86327,0.0449 0.03322,-4.261699 c 0.0189,-2.343495 0.03504,-4.362874 0.03126,-4.488267 -0.0022,-0.125404 -1.014219,-0.210367 -2.248038,-0.189467 -1.23382,0.02079 -2.572862,0.02041 -2.976552,0 z m -4.287093,0.02721 c -2.016751,-0.01625 -4.668505,0.08988 -4.763654,0.273448 -0.06312,0.122041 -0.115612,1.434257 -0.115234,2.916004 3.4e-4,1.481747 -0.0022,3.278229 -0.0098,3.992172 l -0.01172,1.298822 2.345695,0.103521 c 1.290209,0.05734 2.90942,0.118147 3.599595,0.134777 l 1.255856,0.02948 0.04101,-4.175765 c 0.02268,-2.297014 -0.01531,-4.27706 -0.08789,-4.400374 -0.06321,-0.108472 -1.043847,-0.162103 -2.253898,-0.171892 z m -7.513644,0.06837 c -2.136761,0.0057 -6.112504,0.0971 -6.224585,0.166034 -0.174614,0.107338 -0.404868,7.947614 -0.234376,7.976531 0.113008,0.01928 5.019829,0.17125 6.744115,0.208969 l 1.189449,0.02532 -0.0078,-4.15819 c -0.0038,-2.28746 -0.07341,-4.173433 -0.154295,-4.19139 -0.09269,-0.02041 -0.600241,-0.0291 -1.312495,-0.02721 z m -8.792935,0.09362 c -2.047557,-0.01814 -6.109293,0.0483 -6.249976,0.132812 -0.184441,0.110551 -0.254501,7.242523 -0.07422,7.552708 0.107717,0.18444 6.128446,0.421502 7.201145,0.283198 0.115275,-0.01474 0.237026,-1.783325 0.26953,-3.929673 0.03402,-2.146348 0.03621,-3.942811 0.0098,-3.990221 -0.01521,-0.02721 -0.473726,-0.04275 -1.156246,-0.04883 z"
     style="display:inline;fill:#815556;fill-opacity:1;stroke-width:0.295813"
     id="path2799" /></svg>
