<?xml version="1.0" encoding="UTF-8" standalone="no"?>
<!-- Created with Inkscape (http://www.inkscape.org/) -->

<svg
   width="100"
   height="40"
   viewBox="0 0 100 40"
   version="1.1"
   id="svg5"
   xml:space="preserve"
   xmlns="http://www.w3.org/2000/svg"
   xmlns:svg="http://www.w3.org/2000/svg"><defs
     id="defs2" /><path
     d="m 48.927742,24.167109 h -1.37023 v -4.175205 -4.175205 h 1.37023 1.37023 v 4.175205 4.175205 z m -3.719244,0 h -1.565972 v -4.175205 -4.175205 h 1.565972 1.566009 v 4.175205 4.175205 z m -4.516876,-0.397644 h -2.167938 l 0.11263,-3.67816 0.11263,-3.678159 2.055345,-0.120189 2.055383,-0.120189 v 3.798348 3.798311 z m -5.074773,0 h -2.153234 v -3.777561 -3.777561 h 2.153234 2.153235 v 3.777561 3.777561 z m -5.383068,-0.08013 -2.446866,-0.118299 -0.11263,-3.678122 -0.11263,-3.67816 h 2.559421 2.55942 v 3.796535 3.796534 z m -5.676738,8.32e-4 -2.251086,-0.119433 v -3.578721 -3.578758 l 2.251086,-0.119433 2.251125,-0.119055 v 3.817246 3.817284 z M 18.586749,23.371935 H 15.846251 V 19.992017 16.6121 h 2.740498 2.740461 v 3.379917 3.379918 z"
     style="display:inline;fill:#815556;fill-opacity:1;stroke-width:0.394553"
     id="path428" /><path
     style="display:inline;fill:#436665;fill-opacity:1;stroke-width:0.394553"
     d="m 99.763807,25.12914 c -1.390223,8.97528 -5.883175,13.861905 -13.555919,14.743555 -4.631585,0.532233 -8.406653,-0.541833 -15.49992,-4.409952 -2.270098,-1.237945 -5.315264,-1.36267 -8.720581,-0.357543 -3.086249,0.911281 -7.635175,0.907048 -10.337878,-0.0076 -2.845985,-0.965291 -5.494527,-3.649058 -6.622224,-6.710399 -1.295963,-3.518134 -1.356171,-3.440918 2.684409,-3.440918 h 3.523465 v -4.970532 -4.970455 h -3.523465 c -4.04058,0 -3.980372,0.0771 -2.684409,-3.440919 1.117871,-3.0346194 3.780246,-5.7477526 6.56058,-6.6857555 2.632819,-0.8881888 6.904139,-0.894614 10.217689,-0.015118 3.78395,1.0040312 6.569047,0.8926108 8.864883,-0.3548976 C 78.193663,0.42123986 81.653216,-0.50474417 86.658634,0.22920211 93.479435,1.229416 97.334856,4.8866373 99.211769,12.136941 c 0.738293,2.851955 1.036351,9.867437 0.552038,12.99405 z M 85.882621,17.389463 c -0.323149,-0.272126 -0.587263,-0.970129 -0.587263,-1.550777 0,-1.374577 -1.015823,-2.823269 -1.979679,-2.823269 -0.724384,0 -0.760781,0.332976 -0.760781,6.958675 0,6.625889 0.0378,6.958638 0.760781,6.958638 0.963856,0 1.979679,-1.448655 1.979679,-2.823231 0,-0.580686 0.264189,-1.278538 0.587263,-1.550739 0.802508,-0.67646 0.802508,-4.492875 0,-5.169297 z m -17.715857,0.0076 c -0.376441,-0.761083 -1.301102,-1.805895 -2.05474,-2.321839 -1.134123,-0.77639 -1.735257,-0.90822 -3.488618,-0.765203 -1.878425,0.153071 -2.28858,0.3583 -3.621317,1.809449 -1.370759,1.492535 -1.503005,1.831634 -1.503005,3.854323 0,2.022652 0.132284,2.361789 1.503005,3.854362 1.332737,1.451187 1.742892,1.656075 3.621317,1.809372 1.753361,0.143244 2.354495,0.01134 3.488618,-0.765203 2.539276,-1.738279 3.379881,-4.796446 2.05474,-7.475261 z m -54.00885,6.643425 c -0.75651,0.503433 -1.904088,0.718073 -4.012838,0.750539 -1.6243281,0.02646 -3.583711,0.222992 -4.3542056,0.439786 -2.2419782,0.630988 -3.901002,-0.124388 -4.9609328,-2.259518 -1.06892611,-2.15297 -1.10052297,-3.660509 -0.12245671,-5.848251 0.98551181,-2.204598 1.94071201,-2.677757 4.68090761,-2.318739 1.207219,0.157984 3.4354397,0.312567 4.9515605,0.342803 1.905562,0.03855 3.083981,0.272882 3.817096,0.760176 1.014652,0.67457 1.060498,0.850431 1.060498,4.066657 0,3.215281 -0.04611,3.392277 -1.059515,4.066582 z m -3.83418,4.880276 c -1.1048317,0 -1.3702301,-0.152315 -1.3702301,-0.787729 0,-0.503697 0.3446929,-0.875602 0.9564851,-1.031508 1.19006,-0.303118 1.783976,0.04535 1.783976,1.04742 0,0.61697 -0.274772,0.771817 -1.370231,0.771817 z M 11.28022,12.830375 c -0.775862,0.487029 -2.3267161,-0.190111 -2.3267161,-1.015635 0,-0.635149 0.2653228,-0.787691 1.3702301,-0.787691 1.095345,0 1.370231,0.154583 1.370231,0.771779 0,0.424517 -0.186331,0.88868 -0.413745,1.031547 z m -0.509594,13.429111 c -0.33978,0.132284 -0.72892,0.05745 -0.865059,-0.166299 -0.376819,-0.619086 0.08315,-0.870122 0.823144,-0.449499 0.589002,0.334866 0.593499,0.400554 0.04195,0.615534 z m 0.02646,-11.864917 c -0.386117,0.170079 -0.8118814,0.198048 -0.9461302,0.06161 -0.3975686,-0.403805 0.1610082,-0.729298 0.9323722,-0.543458 0.683906,0.164787 0.684548,0.18633 0.01512,0.481927 z m -5.5619544,15.71909 c -1.2006048,0 -1.3702301,-0.123213 -1.3702301,-0.994091 0,-0.87103 0.1697009,-0.994092 1.3702301,-0.994092 1.2006049,0 1.3702301,0.123213 1.3702301,0.994092 0,0.871029 -0.1697008,0.994091 -1.3702301,0.994091 z m 0,-18.291322 c -1.2006048,0 -1.3702301,-0.123213 -1.3702301,-0.994129 0,-0.8709916 0.1697009,-0.9940908 1.3702301,-0.9940908 1.2006049,0 1.3702301,0.1232126 1.3702301,0.9940908 0,0.870992 -0.1697008,0.994129 -1.3702301,0.994129 z m 0,15.507889 c -0.3231496,0 -0.5872252,-0.268346 -0.5872252,-0.596485 0,-0.328063 0.264189,-0.596447 0.5872252,-0.596447 0.3231497,0 0.5872631,0.268347 0.5872631,0.596447 0,0.328063 -0.264189,0.596485 -0.5872631,0.596485 z m 0,-13.519745 c -0.3231496,0 -0.5872252,-0.268346 -0.5872252,-0.596447 0,-0.328063 0.264189,-0.596447 0.5872252,-0.596447 0.3231497,0 0.5872631,0.268347 0.5872631,0.596447 0,0.328063 -0.264189,0.596447 -0.5872631,0.596447 z"
     id="path316" /></svg>
