<?xml version="1.0" encoding="UTF-8" standalone="no"?>
<!-- Created with Inkscape (http://www.inkscape.org/) -->

<svg
   width="99.999992"
   height="40.000034"
   viewBox="0 0 26.458331 10.583342"
   version="1.1"
   id="svg5"
   xml:space="preserve"
   xmlns="http://www.w3.org/2000/svg"
   xmlns:svg="http://www.w3.org/2000/svg"><defs
     id="defs2" /><g
     id="layer1"><path
       style="fill:#815556;fill-opacity:1;stroke-width:0.104883"
       d="M 26.361757,4.0051124 26.283787,3.47461 26.156511,2.9977602 26.029238,2.5209052 25.825336,2.1118874 25.621429,1.7028645 25.192325,1.226467 24.763217,0.7500694 24.292501,0.50671957 23.821785,0.26336974 23.199711,0.13168743 22.57764,0 21.851891,0.06272146 21.126138,0.12544291 20.505065,0.34421584 19.883988,0.56298468 19.157241,1.0071486 l -0.726747,0.444168 -0.687325,0.041477 -0.687322,0.041466 -0.608661,-0.1873487 -0.60866,-0.1873498 -0.88127,-0.00194 -0.881266,-0.00194 -0.547366,0.2455112 -0.547366,0.2455112 -0.453958,0.5167075 -0.453963,0.5167085 -0.16506,0.4957339 -0.165059,0.4957348 v 0.1933006 0.1932976 h 0.936298 0.936302 l -0.02912,1.2997299 -0.02912,1.2997229 h -0.933112 -0.933107 l 0.02974,0.2652537 0.02974,0.2652486 0.333135,0.6849482 0.333132,0.6849472 0.445208,0.346809 0.445212,0.3468121 0.532636,0.1618702 0.532636,0.1618703 h 0.583514 0.583515 l 0.86918,-0.2249345 0.869176,-0.2249274 0.555115,0.058628 0.555111,0.058628 0.798622,0.476195 0.798618,0.4761904 0.570232,0.194081 0.570233,0.194083 h 1.194687 1.194691 l 0.688576,-0.347003 0.688575,-0.3470027 0.335186,-0.3906751 0.335186,-0.3906701 0.303734,-0.6642201 0.30373,-0.6642201 0.143928,-0.8262101 0.143924,-0.826205 -0.0093,-0.795752 -0.0093,-0.7957479 -0.07797,-0.5305034 z m -3.683734,2.1157577 -0.15222,0.2059554 v 0.2815783 0.2815783 l -0.203495,0.1884581 -0.203495,0.1884621 -0.15938,-0.062588 -0.159379,-0.062588 V 5.3346916 3.5276618 h 0.173274 0.173275 l 0.1896,0.1755924 0.1896,0.1755935 v 0.2888656 0.2888605 l 0.15552,0.1320845 0.155517,0.1320845 -0.0031,0.5970829 -0.0031,0.597087 -0.15222,0.2059523 z m -4.709517,0.027017 -0.20202,0.3390602 -0.260197,0.1744688 -0.260197,0.1744698 -0.40423,0.055486 -0.404226,0.055486 L 16.05828,6.7626398 15.678929,6.5784174 15.459811,6.2635085 15.240693,5.9485964 15.191103,5.4984203 15.141523,5.0482411 15.298737,4.7388869 15.45595,4.4295286 15.724203,4.1730757 15.992452,3.9166228 16.55977,3.868474 l 0.567321,-0.048149 0.32355,0.2096425 0.32355,0.2096416 0.197869,0.3071581 0.19787,0.307157 3.14e-4,0.4774496 3.11e-4,0.4774506 -0.20202,0.3390612 z m -4.70673,-1.8331694 -0.155652,-0.061125 -0.240817,0.034927 -0.240816,0.034927 v 1.007953 1.0079488 h 0.362874 0.362875 L 13.38382,5.3576056 13.4174,4.3758628 Z m -1.285278,-0.024233 -0.388793,0.032932 -0.02966,1.0344773 -0.02966,1.0344773 h 0.418471 0.418466 V 5.3249646 4.2575588 Z m -0.745378,0.036912 -0.09739,-0.061596 -0.421006,0.068892 -0.421001,0.068892 v 0.9943894 0.9943924 h 0.518391 0.518395 V 5.3906763 4.3889843 Z M 9.4584,4.3764666 H 8.83244 l 0.02982,0.9814286 0.02982,0.9814296 0.596152,0.031826 0.596151,0.031826 V 5.3897287 4.376484 Z m -1.447609,0 H 7.388717 v 0.9549011 0.9549084 h 0.141047 0.141051 l 0.481023,0.06747 0.481024,0.06747 v -1.022371 -1.022375 z m -1.477421,0.02145 -0.647993,0.031591 -0.02997,0.9283768 -0.02997,0.9283768 h 0.677949 0.67795 V 5.326298 4.3663313 Z m -1.636759,0.066989 -0.730039,0.035398 0.02997,0.8664567 0.02997,0.8664566 0.699834,0.031345 0.699831,0.031345 2.37e-4,-0.9332245 2.41e-4,-0.9332234 -0.73004,0.035398 z M 3.645494,4.2115948 3.32366,4.0412859 2.832018,4.110475 2.340372,4.1796743 1.762604,4.0077915 1.184835,3.8359057 0.821607,3.9912162 0.458375,4.1465309 0.285458,4.4166036 0.11254,4.6866681 0.05627,5.1159729 0,5.5452818 0.178698,6.0241262 0.3574,6.5029757 l 0.315048,0.166725 0.315051,0.166722 0.427202,-0.067879 0.427202,-0.067879 0.88127,-0.081357 0.881266,-0.081367 0.18144,-0.08414 0.181439,-0.084151 V 5.3757773 4.3819006 Z M 2.775017,2.9971584 H 2.412142 v 0.212201 0.2121968 H 2.775017 3.137892 V 3.2093594 2.9971584 Z M 2.996095,7.2849185 2.838967,7.2232204 2.651476,7.2602147 2.46398,7.297209 V 7.5079558 7.7187035 H 2.773596 3.083212 L 3.118192,7.5327087 3.153172,7.3467138 Z M 2.807415,3.6580721 2.684297,3.7000706 2.643237,3.8261357 2.602177,3.9522008 2.766359,3.8877294 2.930541,3.823258 V 3.7196689 3.6160746 Z M 2.775035,6.816761 H 2.619519 V 6.9228615 7.0289661 H 2.775035 2.930556 V 6.9228615 6.816761 Z M 1.724555,2.753256 1.651855,2.678858 H 1.358098 1.064342 V 2.9508301 3.2228022 L 1.400447,3.1895432 1.736557,3.1562942 1.766917,2.991972 1.797277,2.8276467 Z M 1.427212,7.5594684 H 1.064337 V 7.7716745 7.9838754 H 1.427213 1.790091 V 7.7716745 7.5594684 Z m 0,-4.137904 H 1.271695 V 3.527669 3.6337653 h 0.155517 0.15552 V 3.527669 3.4215644 Z m 0.0087,3.6074098 H 1.271757 V 7.1969621 7.364951 L 1.394875,7.3229525 1.517994,7.280954 1.559034,7.1549606 1.600074,7.0289712 Z"
       id="path407" /></g></svg>
